<svg xmlns="http://www.w3.org/2000/svg" viewBox="0 0 720 230" width="720" height="230" role="img" aria-label="Backbone, pointer head and calibrated softmax"><title>Backbone, pointer head and calibrated softmax</title><style>
text { font-family: -apple-system, BlinkMacSystemFont, "Segoe UI", "Noto Sans", Helvetica, Arial, sans-serif; fill: #e6edf3; }
.mono { font-family: ui-monospace, SFMono-Regular, "SF Mono", Menlo, Consolas, monospace; }
.muted { fill: #9198a1; }
.title { font-weight: 600; }
.sweep { animation: sweep 6s ease-in-out infinite both; }
@keyframes sweep { 0% { opacity: .22; } 7% { opacity: 1; } 80% { opacity: 1; } 100% { opacity: .22; } }
.glow { animation: glow 6s ease-in-out infinite; transform-box: fill-box; transform-origin: center; }
@keyframes glow { 0%, 55% { stroke-width: 1; } 62% { stroke-width: 4; } 72%, 100% { stroke-width: 1; } }
.flow { stroke-dasharray: 5 5; animation: flow 1s linear infinite; }
@keyframes flow { to { stroke-dashoffset: -20; } }
.wave { animation: wave 2.4s ease-in-out infinite; transform-box: fill-box; transform-origin: bottom; }
@keyframes wave { 0%, 100% { transform: scaleY(.55); } 50% { transform: scaleY(1); } }
.grow { animation: grow 6s cubic-bezier(.2,.8,.2,1) infinite; transform-box: fill-box; transform-origin: left; }
@keyframes grow { 0%, 10% { transform: scaleX(0); } 35%, 85% { transform: scaleX(1); } 100% { transform: scaleX(0); } }
.pop { animation: pop 6s ease-out infinite both; transform-box: fill-box; transform-origin: center; }
@keyframes pop { 0% { opacity: 0; transform: scale(.4); } 8% { opacity: 1; transform: scale(1); } 85% { opacity: 1; } 100% { opacity: 0; } }
@media (prefers-reduced-motion: reduce) { * { animation: none !important; } }
</style><defs><marker id="arr" viewBox="0 0 8 8" refX="7" refY="4" markerWidth="7" markerHeight="7" orient="auto"><path d="M0 0 L8 4 L0 8 z" fill="#9198a1"/></marker></defs><rect width="720" height="230" rx="14" fill="#0d1117"/><rect x="8" y="20" width="300" height="190" rx="16" fill="#161b22" stroke="#3d444d"/><text x="24" y="46" font-size="15" class="title">Gemma 4 E2B / E4B</text><text x="24" y="64" font-size="11" class="muted">E2B: 35 layers · hidden 1,536</text><rect x="24.0" y="98" width="5.6" height="40" rx="1.5" fill="#9198a1" opacity="0.45" class="wave" style="animation-delay:0.00s"/><rect x="31.6" y="98" width="5.6" height="40" rx="1.5" fill="#9198a1" opacity="0.45" class="wave" style="animation-delay:0.06s"/><rect x="39.2" y="98" width="5.6" height="40" rx="1.5" fill="#9198a1" opacity="0.45" class="wave" style="animation-delay:0.12s"/><rect x="46.8" y="98" width="5.6" height="40" rx="1.5" fill="#9198a1" opacity="0.45" class="wave" style="animation-delay:0.18s"/><rect x="54.4" y="80" width="5.6" height="58" rx="1.5" fill="#7c3aed" opacity="0.9" class="wave" style="animation-delay:0.24s"/><rect x="62.0" y="98" width="5.6" height="40" rx="1.5" fill="#9198a1" opacity="0.45" class="wave" style="animation-delay:0.30s"/><rect x="69.6" y="98" width="5.6" height="40" rx="1.5" fill="#9198a1" opacity="0.45" class="wave" style="animation-delay:0.36s"/><rect x="77.19999999999999" y="98" width="5.6" height="40" rx="1.5" fill="#9198a1" opacity="0.45" class="wave" style="animation-delay:0.42s"/><rect x="84.8" y="98" width="5.6" height="40" rx="1.5" fill="#9198a1" opacity="0.45" class="wave" style="animation-delay:0.48s"/><rect x="92.39999999999999" y="80" width="5.6" height="58" rx="1.5" fill="#7c3aed" opacity="0.9" class="wave" style="animation-delay:0.54s"/><rect x="100.0" y="98" width="5.6" height="40" rx="1.5" fill="#9198a1" opacity="0.45" class="wave" style="animation-delay:0.60s"/><rect x="107.6" y="98" width="5.6" height="40" rx="1.5" fill="#9198a1" opacity="0.45" class="wave" style="animation-delay:0.66s"/><rect x="115.19999999999999" y="98" width="5.6" height="40" rx="1.5" fill="#9198a1" opacity="0.45" class="wave" style="animation-delay:0.72s"/><rect x="122.8" y="98" width="5.6" height="40" rx="1.5" fill="#9198a1" opacity="0.45" class="wave" style="animation-delay:0.78s"/><rect x="130.39999999999998" y="80" width="5.6" height="58" rx="1.5" fill="#7c3aed" opacity="0.9" class="wave" style="animation-delay:0.84s"/><rect x="138.0" y="98" width="5.6" height="40" rx="1.5" fill="#9198a1" opacity="0.45" class="wave" style="animation-delay:0.90s"/><rect x="145.6" y="98" width="5.6" height="40" rx="1.5" fill="#9198a1" opacity="0.45" class="wave" style="animation-delay:0.96s"/><rect x="153.2" y="98" width="5.6" height="40" rx="1.5" fill="#9198a1" opacity="0.45" class="wave" style="animation-delay:1.02s"/><rect x="160.79999999999998" y="98" width="5.6" height="40" rx="1.5" fill="#9198a1" opacity="0.45" class="wave" style="animation-delay:1.08s"/><rect x="168.4" y="80" width="5.6" height="58" rx="1.5" fill="#7c3aed" opacity="0.9" class="wave" style="animation-delay:1.14s"/><rect x="176.0" y="98" width="5.6" height="40" rx="1.5" fill="#9198a1" opacity="0.45" class="wave" style="animation-delay:1.20s"/><rect x="183.6" y="98" width="5.6" height="40" rx="1.5" fill="#9198a1" opacity="0.45" class="wave" style="animation-delay:1.26s"/><rect x="191.2" y="98" width="5.6" height="40" rx="1.5" fill="#9198a1" opacity="0.45" class="wave" style="animation-delay:1.32s"/><rect x="198.79999999999998" y="98" width="5.6" height="40" rx="1.5" fill="#9198a1" opacity="0.45" class="wave" style="animation-delay:1.38s"/><rect x="206.39999999999998" y="80" width="5.6" height="58" rx="1.5" fill="#7c3aed" opacity="0.9" class="wave" style="animation-delay:1.44s"/><rect x="214.0" y="98" width="5.6" height="40" rx="1.5" fill="#9198a1" opacity="0.45" class="wave" style="animation-delay:1.50s"/><rect x="221.6" y="98" width="5.6" height="40" rx="1.5" fill="#9198a1" opacity="0.45" class="wave" style="animation-delay:1.56s"/><rect x="229.2" y="98" width="5.6" height="40" rx="1.5" fill="#9198a1" opacity="0.45" class="wave" style="animation-delay:1.62s"/><rect x="236.79999999999998" y="98" width="5.6" height="40" rx="1.5" fill="#9198a1" opacity="0.45" class="wave" style="animation-delay:1.68s"/><rect x="244.39999999999998" y="80" width="5.6" height="58" rx="1.5" fill="#7c3aed" opacity="0.9" class="wave" style="animation-delay:1.74s"/><rect x="252.0" y="98" width="5.6" height="40" rx="1.5" fill="#9198a1" opacity="0.45" class="wave" style="animation-delay:1.80s"/><rect x="259.6" y="98" width="5.6" height="40" rx="1.5" fill="#9198a1" opacity="0.45" class="wave" style="animation-delay:1.86s"/><rect x="267.2" y="98" width="5.6" height="40" rx="1.5" fill="#9198a1" opacity="0.45" class="wave" style="animation-delay:1.92s"/><rect x="274.79999999999995" y="98" width="5.6" height="40" rx="1.5" fill="#9198a1" opacity="0.45" class="wave" style="animation-delay:1.98s"/><rect x="282.4" y="80" width="5.6" height="58" rx="1.5" fill="#7c3aed" opacity="0.9" class="wave" style="animation-delay:2.04s"/><text x="24" y="156" font-size="11" class="muted">4 of every 5 layers: sliding window 512 · 1 of 5: global</text><rect x="24" y="168" width="268" height="30" rx="8" fill="#059669" fill-opacity=".14" stroke="#059669"/><text x="158" y="187" text-anchor="middle" font-size="10">LoRA r=16 on q k v o · gate up down</text><path d="M 308 115 L 356 115" stroke="#9198a1" stroke-width="2" marker-end="url(#arr)" class="flow"/><rect x="360" y="40" width="150" height="150" rx="16" fill="#c026d3" fill-opacity=".1" stroke="#c026d3"/><text x="435" y="64" text-anchor="middle" font-size="14" class="title">Pointer head</text><g class=""><rect x="378" y="78" width="114" height="26" rx="6" fill="#161b22" stroke="#e11d48" /><rect x="378" y="78" width="114" height="26" rx="6" fill="#e11d48" fill-opacity="0.16"/><text x="435.0" y="95" text-anchor="middle" font-size="11" class="mono">q(h⟨decide⟩)</text></g><g class=""><rect x="378" y="110" width="114" height="26" rx="6" fill="#161b22" stroke="#d97706" /><rect x="378" y="110" width="114" height="26" rx="6" fill="#d97706" fill-opacity="0.16"/><text x="435.0" y="127" text-anchor="middle" font-size="11" class="mono">k(h⟨/opt⟩ᵢ)</text></g><text x="435" y="158" text-anchor="middle" font-size="11" class="mono">q·kᵢ / √256</text><text x="435" y="176" text-anchor="middle" font-size="10" class="muted">q, k: hidden → 256</text><path d="M 510 115 L 548 115" stroke="#9198a1" stroke-width="2" marker-end="url(#arr)" class="flow"/><rect x="552" y="60" width="160" height="110" rx="16" fill="#161b22" stroke="#3d444d"/><text x="632" y="84" text-anchor="middle" font-size="12" class="title">softmax(z / T)</text><text x="632" y="102" text-anchor="middle" font-size="10" class="muted">T fitted on held-out data</text><text x="568" y="127" font-size="10" class="mono muted">A</text><rect x="582" y="119" width="110" height="6" rx="3" fill="#262c36"/><rect x="582" y="119" width="68.2" height="6" rx="3" fill="#e6edf3" class="grow" style="animation-delay:0.00s"/><text x="568" y="141" font-size="10" class="mono muted">B</text><rect x="582" y="133" width="110" height="6" rx="3" fill="#262c36"/><rect x="582" y="133" width="29.7" height="6" rx="3" fill="#9198a1" class="grow" style="animation-delay:0.12s"/><text x="568" y="155" font-size="10" class="mono muted">C</text><rect x="582" y="147" width="110" height="6" rx="3" fill="#262c36"/><rect x="582" y="147" width="12.1" height="6" rx="3" fill="#9198a1" class="grow" style="animation-delay:0.24s"/></svg>